<?xml version="1.0" standalone="no"?>
<!DOCTYPE svg PUBLIC "-//W3C//DTD SVG 20010904//EN"
 "http://www.w3.org/TR/2001/REC-SVG-20010904/DTD/svg10.dtd">
<svg version="1.0" xmlns="http://www.w3.org/2000/svg"
 width="210.000000pt" height="260.000000pt" viewBox="0 0 210.000000 260.000000"
 preserveAspectRatio="xMidYMid meet">

<g transform="translate(0.000000,260.000000) scale(0.100000,-0.100000)"
fill="#000000" stroke="none">
<path d="M0 1300 l0 -1300 1050 0 1050 0 0 1300 0 1300 -1050 0 -1050 0 0
-1300z m1265 1056 c328 -89 569 -327 656 -651 29 -107 32 -327 5 -425 -49
-180 -117 -303 -234 -423 -344 -354 -906 -364 -1260 -23 -131 126 -209 260
-258 446 -27 99 -24 319 5 425 92 341 353 587 701 661 85 18 303 12 385 -10z"/>
<path d="M1036 2260 c-9 -19 30 -390 42 -390 10 0 175 122 275 204 l99 80 -54
27 c-85 43 -176 69 -272 77 -48 4 -89 5 -90 2z"/>
<path d="M910 2253 c-52 -8 -155 -45 -222 -79 -55 -28 -68 -39 -63 -52 10 -27
80 -280 100 -359 9 -40 22 -73 29 -73 9 0 163 81 220 116 15 9 16 18 7 72 -5
33 -15 133 -22 221 -7 89 -15 160 -18 160 -3 -1 -17 -4 -31 -6z"/>
<path d="M478 2012 c-80 -84 -140 -187 -177 -305 -26 -85 -39 -197 -22 -197
19 0 232 71 308 102 71 30 72 31 66 62 -11 58 -72 251 -100 318 l-29 68 -46
-48z"/>
<path d="M1565 1949 c-84 -55 -285 -170 -378 -216 l-79 -38 6 -36 c3 -20 21
-86 39 -145 l32 -109 85 5 c126 7 394 6 484 -2 l79 -8 -6 118 c-5 124 -27 213
-75 307 -37 74 -101 165 -115 164 -7 0 -39 -18 -72 -40z"/>
<path d="M890 1600 c-69 -30 -114 -54 -113 -62 14 -85 35 -203 38 -206 3 -3
247 48 253 53 2 2 -6 41 -16 86 -11 46 -23 105 -27 132 -4 26 -10 47 -14 46
-3 0 -58 -23 -121 -49z"/>
<path d="M585 1487 c-49 -16 -138 -41 -198 -56 -59 -16 -109 -30 -112 -32 -6
-7 23 -139 41 -184 9 -22 20 -50 25 -62 l8 -23 66 36 c36 20 114 56 173 80
l107 44 -4 91 c-2 50 -6 101 -10 113 l-6 22 -90 -29z"/>
<path d="M1250 1254 c0 -3 23 -50 51 -105 50 -97 113 -191 177 -263 l33 -38
56 48 c96 83 223 275 193 294 -20 12 -204 49 -300 60 -95 11 -210 13 -210 4z"/>
<path d="M946 1229 c-60 -10 -111 -21 -113 -23 -2 -2 1 -50 6 -107 6 -57 13
-166 17 -241 l7 -137 46 -8 c81 -14 251 -9 326 10 99 25 103 28 76 65 -35 49
-137 269 -172 370 -37 107 -21 101 -193 71z"/>
<path d="M580 1131 c-90 -32 -164 -64 -179 -77 -17 -15 192 -224 225 -224 20
0 69 245 62 308 l-3 30 -105 -37z"/>
</g>
</svg>
